<svg width="846" height="761" viewBox="0 0 846 761" fill="none" xmlns="http://www.w3.org/2000/svg" data-aos="fade-left">
    <g clip-path="url(#clip0)">
    <path d="M362.889 172.947H358.891V63.4019C358.891 55.0759 357.251 46.8313 354.064 39.1391C350.878 31.4468 346.208 24.4574 340.321 18.57C334.433 12.6826 327.444 8.01245 319.752 4.8262C312.059 1.63995 303.815 7.87949e-06 295.489 1.77451e-10H63.402C55.0759 -1.96981e-05 46.8314 1.6399 39.1391 4.82613C31.4469 8.01235 24.4575 12.6825 18.5701 18.5699C12.6826 24.4573 8.01248 31.4466 4.82622 39.1389C1.63996 46.8312 1.70719e-05 55.0757 0 63.4017V664.376C-1.5913e-05 681.191 6.67977 697.318 18.5699 709.208C30.4601 721.098 46.5866 727.778 63.4018 727.778H295.488C312.304 727.778 328.43 721.098 340.32 709.208C352.211 697.318 358.89 681.192 358.89 664.376V250.924H362.889L362.889 172.947Z" fill="#3F3D56"/>
    <path d="M298.047 16.495H267.752C269.145 19.9106 269.677 23.6165 269.3 27.2861C268.924 30.9556 267.651 34.4764 265.593 37.538C263.536 40.5997 260.757 43.1084 257.501 44.8431C254.246 46.5778 250.613 47.4853 246.925 47.4855H113.965C110.276 47.4853 106.644 46.5778 103.389 44.8431C100.133 43.1085 97.3541 40.5998 95.2965 37.5381C93.2389 34.4764 91.9658 30.9557 91.5894 27.2861C91.213 23.6165 91.7448 19.9106 93.138 16.495H64.8424C52.285 16.495 40.2419 21.4834 31.3625 30.3628C22.483 39.2422 17.4946 51.2853 17.4946 63.8427V663.935C17.4946 670.153 18.7192 676.31 21.0987 682.055C23.4781 687.799 26.9658 693.019 31.3624 697.415C35.7591 701.812 40.9786 705.3 46.7231 707.679C52.4676 710.058 58.6245 711.283 64.8423 711.283H298.047C304.265 711.283 310.422 710.058 316.166 707.679C321.911 705.3 327.13 701.812 331.527 697.415C335.923 693.019 339.411 687.799 341.79 682.055C344.17 676.31 345.395 670.153 345.395 663.935V663.935V63.8427C345.395 57.6249 344.17 51.468 341.79 45.7235C339.411 39.979 335.923 34.7594 331.527 30.3628C327.13 25.9661 321.911 22.4785 316.166 20.0991C310.422 17.7196 304.265 16.495 298.047 16.495V16.495Z" fill="white"/>
    <path d="M315.728 134.488H47.1611V593.29H315.728V134.488Z" fill="#E6E6E6"/>
    <path d="M755.241 533.21L757.265 604.061L778.858 687.058C778.858 687.058 774.134 701.228 777.508 704.602C780.882 707.976 796.402 714.049 796.402 714.049L783.581 537.258L755.241 533.21Z" fill="#E6E6E6"/>
    <path d="M802.12 704.256C802.12 704.256 809.821 721.197 799.04 722.737C788.26 724.277 738.465 728.384 741.545 719.657C744.625 710.93 782.1 702.716 782.1 702.716L802.12 704.256Z" fill="#2F2E41"/>
    <path d="M830.815 470.456C830.815 470.456 822.718 514.316 817.32 521.738C811.921 529.161 820.019 583.143 820.019 583.143C820.019 583.143 832.165 660.742 826.766 672.888C821.368 685.034 822.718 680.985 823.393 687.733C824.067 694.48 825.417 699.879 823.393 705.952C821.368 712.025 821.368 711.35 820.694 714.724C820.019 718.097 820.694 736.316 820.694 736.316C820.694 736.316 791.678 746.438 786.955 731.593C786.955 731.593 793.703 722.146 791.678 714.724C789.568 707.254 788.434 699.542 788.304 691.781V677.611L757.265 561.55L749.842 519.714C749.842 519.714 751.867 477.203 759.289 473.155C766.712 469.106 830.815 470.456 830.815 470.456Z" fill="#E6E6E6"/>
    <path d="M818.669 732.942C818.669 732.942 828.791 755.21 814.621 757.234C800.45 759.259 734.997 764.657 739.046 753.186C743.095 741.715 792.353 730.918 792.353 730.918L818.669 732.942Z" fill="#2F2E41"/>
    <path d="M805.841 276.149C820.748 276.149 832.832 264.065 832.832 249.158C832.832 234.252 820.748 222.167 805.841 222.167C790.935 222.167 778.851 234.252 778.851 249.158C778.851 264.065 790.935 276.149 805.841 276.149Z" fill="#FFB9B9"/>
    <path d="M824.808 261.086L824.306 295.555L791.214 295.667C791.214 295.667 799.613 268.684 795.851 263.041C792.089 257.399 824.808 261.086 824.808 261.086Z" fill="#FFB9B9"/>
    <path d="M775.484 314.583C775.484 314.583 799.101 284.218 817.32 297.039C835.539 309.86 842.286 340.225 842.286 340.225L838.238 425.246C838.238 425.246 828.791 468.431 830.815 470.456C832.84 472.48 828.791 473.83 828.791 473.83L757.265 475.854C757.265 475.854 759.289 473.155 753.216 465.058C747.143 456.96 754.566 446.164 753.216 442.115C751.867 438.067 775.484 314.583 775.484 314.583Z" fill="#3F3D56"/>
    <path d="M782.232 488.675C782.232 488.675 780.882 505.544 770.76 508.243C766.965 509.255 764.118 507.326 762.042 504.519C760.104 501.828 759.018 498.618 758.923 495.304C758.829 491.99 759.731 488.723 761.513 485.927L764.013 481.927L782.232 488.675Z" fill="#FFB9B9"/>
    <path d="M844.648 280.507C844.648 280.507 845.323 294.003 844.648 296.027C843.973 298.051 843.299 300.076 844.648 302.1C845.998 304.124 845.323 310.872 843.973 311.547C842.624 312.222 846.672 318.294 845.323 322.343C843.973 326.392 842.624 327.741 841.949 329.091C841.274 330.44 840.187 332.858 840.187 332.858C840.187 332.858 820.356 290.629 804.162 300.75C787.967 310.872 775.146 314.246 775.146 314.246C775.146 314.246 783.918 267.012 844.648 280.507Z" fill="#3F3D56"/>
    <path d="M815.295 311.884C815.295 311.884 836.888 313.908 835.539 342.249C834.189 370.589 837.563 415.124 837.563 415.124C837.563 415.124 800.45 471.805 794.377 475.854C788.304 479.902 787.63 479.228 788.304 482.602C788.979 485.975 789.654 488.675 786.955 491.374C785.361 492.978 783.543 494.342 781.557 495.422C781.557 495.422 759.964 488 761.988 481.252C764.013 474.504 773.459 463.708 773.459 463.708C773.459 463.708 789.654 437.392 790.329 433.343C791.003 429.295 791.003 429.969 793.028 427.945C795.052 425.921 800.45 417.823 800.45 413.775V400.954L794.793 332.44C794.536 329.65 794.873 326.836 795.781 324.185C796.689 321.534 798.147 319.105 800.061 317.058C803.272 313.698 808.126 311.024 815.295 311.884Z" fill="#3F3D56"/>
    <path d="M788.435 228.343C786.676 228.831 784.824 228.873 783.044 228.465C781.265 228.058 779.615 227.214 778.244 226.01C775.606 223.504 774.72 219.161 776.596 216.044C778.217 213.352 781.369 212.036 784.368 211.1C790.984 209.038 797.874 207.987 804.804 207.983C808.108 207.982 811.558 208.264 814.385 209.973C815.784 210.819 816.969 211.981 818.352 212.852C820.895 214.455 823.949 214.987 826.741 216.1C829.596 217.261 832.168 219.021 834.284 221.262C836.4 223.502 838.01 226.171 839.005 229.088C839.646 231.066 840.046 233.115 840.197 235.188C840.653 240.869 839.65 246.573 837.281 251.756C833.516 259.966 826.35 266.869 825.337 275.844C821.48 272.606 820.349 267.174 817.361 263.119C815.137 260.121 811.962 257.966 808.354 257.006C807.346 256.873 806.399 256.449 805.627 255.787C805.107 255.069 804.811 254.214 804.773 253.329L802.921 239.995C802.544 237.281 802.035 234.315 799.953 232.535C798.647 231.563 797.133 230.906 795.531 230.616C791.742 229.674 787.881 229.044 783.989 228.734" fill="#2F2E41"/>
    <path opacity="0.1" d="M834.281 424.763L796.402 473.92C796.402 473.92 831.281 444.763 834.281 424.763Z" fill="black"/>
    <path opacity="0.1" d="M797.922 370.338L798.281 416.763L776.281 449.763L794.281 412.763L797.922 370.338Z" fill="black"/>
    <path d="M502.066 125.198C511.95 174.997 514.763 225.941 510.424 276.526C509.283 289.697 507.654 302.813 505.536 315.873C504.57 321.81 503.47 327.72 502.339 333.627C501.691 337.012 500.332 341.227 502.461 344.413C506.607 350.619 520.814 349 527.075 349.202C540.1 349.624 553.143 349.695 566.172 349.922L605.37 350.606L624.244 350.936C630.674 351.048 637.717 352.045 644.097 351.222C652.493 350.14 650.448 341.346 650.321 334.814C650.069 321.898 649.725 308.985 649.288 296.075C647.556 244.912 644.367 193.826 639.721 142.818C639.128 136.31 639.499 128.525 637.746 122.233C637.037 119.689 636.332 118.953 633.57 118.496C627.241 117.45 619.7 118.552 613.297 118.596L591.888 118.745L504.824 119.351C504.257 119.371 503.721 119.61 503.327 120.017C502.933 120.425 502.713 120.97 502.713 121.537C502.713 122.103 502.933 122.648 503.327 123.056C503.721 123.464 504.257 123.702 504.824 123.722L576.188 123.225L607.588 123.007L624.715 122.888C628.236 122.863 631.526 121.797 633.733 125.67C635.13 128.121 634.558 134.249 634.824 137.101C639.088 182.832 642.181 228.652 644.103 274.561C644.583 286.033 644.99 297.508 645.323 308.986C645.462 313.768 645.589 318.551 645.702 323.334C645.77 326.204 645.833 329.074 645.893 331.944C645.953 334.904 647.178 340.705 646.104 343.424C643.812 349.222 633.595 346.728 628.599 346.641L611.178 346.337L576.335 345.729L541.492 345.121C535.731 345.02 529.964 344.976 524.206 344.731C522.297 344.649 520.384 344.558 518.477 344.422C512.797 344.017 506.684 345.36 506.008 337.511C505.592 332.667 508.241 325.987 509.068 321.142C510.002 315.67 510.851 310.184 511.614 304.685C513.042 294.411 514.179 284.103 515.027 273.761C519.028 223.688 516.085 173.302 506.281 124.036C505.736 121.279 501.522 122.446 502.066 125.198L502.066 125.198Z" fill="#6C63FF"/>
    <path d="M522.163 136.448H551.072C551.638 136.428 552.175 136.19 552.569 135.782C552.963 135.374 553.183 134.83 553.183 134.263C553.183 133.696 552.963 133.151 552.569 132.743C552.175 132.336 551.638 132.097 551.072 132.077H522.163C521.596 132.097 521.06 132.336 520.666 132.743C520.272 133.151 520.052 133.696 520.052 134.263C520.052 134.83 520.272 135.374 520.666 135.782C521.06 136.19 521.596 136.428 522.163 136.448Z" fill="#6C63FF"/>
    <path d="M522.161 146.308L549.41 145.278C552.214 145.172 552.228 140.801 549.41 140.907L522.161 141.937C519.357 142.043 519.343 146.414 522.161 146.308Z" fill="#6C63FF"/>
    <path d="M522.163 154.619H548.594C549.16 154.6 549.697 154.361 550.091 153.953C550.485 153.546 550.705 153.001 550.705 152.434C550.705 151.867 550.485 151.323 550.091 150.915C549.697 150.507 549.16 150.268 548.594 150.249H522.163C521.596 150.268 521.06 150.507 520.666 150.915C520.272 151.323 520.052 151.867 520.052 152.434C520.052 153.001 520.272 153.546 520.666 153.953C521.06 154.361 521.596 154.6 522.163 154.619V154.619Z" fill="#6C63FF"/>
    <path d="M609.751 134.396C603.819 131.301 598.434 136.391 597.599 142.206C597.19 145.05 597.102 148.937 598.914 151.352C600.764 153.819 604.323 154.854 607.278 155.036C612.92 155.384 618.922 152.237 620.311 146.459C620.965 143.895 620.646 141.178 619.415 138.835C618.185 136.491 616.13 134.686 613.647 133.768C610.983 132.845 609.839 137.066 612.485 137.983C613.711 138.493 614.739 139.387 615.414 140.531C616.088 141.676 616.372 143.008 616.224 144.328C616.051 145.846 615.386 147.266 614.332 148.372C613.278 149.478 611.891 150.21 610.383 150.455C606.776 151.285 602.548 150.395 601.85 146.325C601.329 143.281 602.982 135.789 607.546 138.17C610.037 139.47 612.249 135.699 609.752 134.396H609.751Z" fill="#6C63FF"/>
    <path d="M527.945 178.588C559.743 178.923 591.508 177.941 623.241 175.643L621.134 172.877C615.939 186.038 616.082 199.911 616.771 213.834C616.944 217.323 618.038 222.027 617.33 225.482C616.44 229.827 612.539 228.788 608.66 228.914C600.116 229.19 591.569 229.389 583.021 229.509C574.948 229.623 566.874 229.668 558.8 229.644C555 229.632 551.201 229.605 547.401 229.563C542.94 229.514 537.869 230.809 536.716 225.641C535.978 222.331 536.722 217.977 536.724 214.573L536.732 202.121L536.749 177.217C536.729 176.65 536.49 176.113 536.083 175.719C535.675 175.326 535.13 175.106 534.563 175.106C533.997 175.106 533.452 175.326 533.044 175.719C532.636 176.113 532.398 176.65 532.378 177.217L532.358 207.655L532.348 221.491C532.347 224.239 531.776 227.559 532.802 230.168C535.162 236.169 545.362 233.918 550.251 233.963C560.224 234.055 570.198 234.04 580.171 233.917C590.144 233.797 600.115 233.57 610.084 233.238C614.378 233.096 620.321 234.072 621.624 228.776C622.537 225.062 621.472 220.221 621.278 216.431C621.055 212.107 620.816 207.782 620.758 203.451C620.623 193.339 621.614 183.502 625.348 174.038C625.436 173.714 625.448 173.374 625.383 173.044C625.318 172.715 625.179 172.404 624.975 172.137C624.771 171.87 624.509 171.653 624.209 171.503C623.908 171.353 623.577 171.274 623.241 171.272C591.524 173.569 559.759 174.551 527.945 174.217C527.378 174.237 526.841 174.476 526.447 174.884C526.054 175.291 525.834 175.836 525.834 176.403C525.834 176.97 526.054 177.514 526.447 177.922C526.841 178.33 527.378 178.569 527.945 178.588L527.945 178.588Z" fill="#6C63FF"/>
    <path d="M537.007 180.963C550.618 185.78 563.888 191.511 576.727 198.116C588.246 204.069 603.326 210.572 611.253 221.211C612.915 223.441 616.711 221.265 615.027 219.006C606.932 208.141 592.996 201.748 581.29 195.573C567.385 188.275 552.974 181.984 538.169 176.749C535.514 175.803 534.371 180.025 537.007 180.963L537.007 180.963Z" fill="#6C63FF"/>
    <path d="M622.498 173.179C608.055 179.356 595.818 191.255 582.911 200.073C568.939 209.617 554.552 218.499 539.75 226.719C537.293 228.09 539.495 231.867 541.956 230.493C556.727 222.244 571.114 213.362 585.117 203.847C598.021 195.031 610.264 183.128 624.704 176.953C627.282 175.851 625.058 172.085 622.498 173.179V173.179Z" fill="#6C63FF"/>
    <path d="M527.945 266.003C559.743 266.338 591.508 265.356 623.241 263.058L621.134 260.292C615.939 273.454 616.082 287.326 616.771 301.249C616.944 304.738 618.038 309.442 617.33 312.897C616.44 317.242 612.539 316.204 608.66 316.329C600.116 316.605 591.569 316.804 583.021 316.925C574.948 317.039 566.874 317.084 558.8 317.059C555 317.048 551.201 317.021 547.401 316.979C542.94 316.929 537.869 318.224 536.716 313.057C535.978 309.746 536.722 305.392 536.724 301.988L536.732 289.536L536.749 264.632C536.729 264.065 536.49 263.529 536.083 263.135C535.675 262.741 535.13 262.521 534.563 262.521C533.997 262.521 533.452 262.741 533.044 263.135C532.636 263.529 532.398 264.065 532.378 264.632L532.358 295.07L532.348 308.906C532.347 311.654 531.776 314.974 532.802 317.583C535.162 323.585 545.362 321.333 550.251 321.378C560.224 321.47 570.198 321.455 580.171 321.333C590.144 321.212 600.115 320.986 610.084 320.654C614.378 320.511 620.321 321.488 621.624 316.191C622.537 312.478 621.472 307.636 621.278 303.847C621.055 299.523 620.816 295.197 620.758 290.867C620.623 280.755 621.614 270.917 625.348 261.454C625.436 261.129 625.448 260.789 625.383 260.46C625.318 260.13 625.179 259.82 624.975 259.552C624.771 259.285 624.509 259.068 624.209 258.918C623.908 258.768 623.577 258.689 623.241 258.688C591.524 260.985 559.759 261.967 527.945 261.633C527.378 261.652 526.841 261.891 526.447 262.299C526.054 262.707 525.833 263.251 525.833 263.818C525.833 264.385 526.054 264.93 526.447 265.337C526.841 265.745 527.378 265.984 527.945 266.004L527.945 266.003Z" fill="#6C63FF"/>
    <path d="M537.007 268.379C550.618 273.195 563.888 278.926 576.727 285.531C588.246 291.484 603.326 297.987 611.253 308.627C612.915 310.857 616.711 308.68 615.027 306.421C606.932 295.556 592.996 289.163 581.29 282.988C567.385 275.69 552.974 269.399 538.169 264.164C535.514 263.219 534.371 267.44 537.007 268.379Z" fill="#6C63FF"/>
    <path d="M622.498 260.595C608.055 266.771 595.818 278.671 582.911 287.488C568.939 297.032 554.552 305.914 539.75 314.134C537.293 315.506 539.495 319.282 541.956 317.908C556.727 309.66 571.114 300.778 585.117 291.262C598.021 282.446 610.264 270.543 624.704 264.369C627.282 263.266 625.058 259.5 622.498 260.595Z" fill="#6C63FF"/>
    <path d="M385.086 238.636H466.857C467.424 238.616 467.96 238.378 468.354 237.97C468.748 237.562 468.968 237.017 468.968 236.451C468.968 235.884 468.748 235.339 468.354 234.931C467.96 234.524 467.424 234.285 466.857 234.265H385.086C384.52 234.285 383.983 234.524 383.589 234.931C383.195 235.339 382.975 235.884 382.975 236.451C382.975 237.017 383.195 237.562 383.589 237.97C383.983 238.378 384.52 238.616 385.086 238.636Z" fill="#6C63FF"/>
    <path d="M460.361 217.184L473.137 228.845C474.598 230.179 478.617 232.932 479.525 234.676C481.402 238.281 479.385 237.459 476.169 238.708C468.265 241.853 460.983 246.375 454.659 252.064C452.545 253.927 455.646 257.009 457.75 255.155C463.517 249.971 470.143 245.832 477.331 242.922C479.908 241.903 484.798 241.306 486.022 238.236C487.521 234.478 482.748 231.706 480.486 229.642L463.452 214.093C461.378 212.2 458.278 215.283 460.361 217.184L460.361 217.184Z" fill="#6C63FF"/>
    <path d="M151.403 390.693C177.304 390.693 198.302 385.381 198.302 378.827C198.302 372.274 177.304 366.962 151.403 366.962C125.502 366.962 104.505 372.274 104.505 378.827C104.505 385.381 125.502 390.693 151.403 390.693Z" fill="#2F2E41"/>
    <path d="M142.08 220.898C144.905 229.374 136.43 239.544 136.43 239.544L148.295 254.236L166.942 257.626C166.942 257.626 179.373 249.15 174.852 246.325C170.332 243.5 169.767 220.898 169.767 220.898L142.08 220.898Z" fill="#A0616A"/>
    <path d="M122.873 385.25L102.532 536.964L103.652 537.115L123.994 385.401L122.873 385.25Z" fill="#2F2E41"/>
    <path d="M141.517 387.537L128.521 537.273L129.647 537.371L142.643 387.635L141.517 387.537Z" fill="#2F2E41"/>
    <path d="M177.151 364.364L176.026 364.466L191.765 537.094L192.891 536.992L177.151 364.364Z" fill="#2F2E41"/>
    <path d="M162.536 361.536L156.207 537.584L157.336 537.625L163.665 361.576L162.536 361.536Z" fill="#2F2E41"/>
    <path d="M190.674 332.776L156.206 362.159L214.97 376.85C214.97 376.85 194.064 394.931 186.718 396.626C179.373 398.321 163.552 407.927 163.552 407.927C163.552 407.927 189.544 425.443 191.239 424.878C192.934 424.313 202.539 422.053 202.539 422.053C202.539 422.053 254.523 385.891 265.259 364.419C275.995 342.947 211.015 338.427 211.015 338.427L190.674 332.776Z" fill="#2F2E41"/>
    <path d="M117.783 367.244C115.523 374.59 132.474 382.5 132.474 382.5C132.474 382.5 148.295 403.407 152.816 405.667C157.336 407.927 159.031 421.488 159.031 421.488C151.121 442.96 159.031 506.81 159.031 515.85C159.031 524.891 186.718 515.85 186.718 515.85C186.718 515.85 181.633 446.915 188.978 426.111C196.324 405.307 159.031 352.553 159.031 352.553C159.031 352.553 120.043 359.899 117.783 367.244Z" fill="#2F2E41"/>
    <path d="M133.039 209.012C133.042 203.016 135.426 197.267 139.667 193.028C143.909 188.79 149.66 186.409 155.656 186.411C161.652 186.412 167.402 188.795 171.641 193.035C175.881 197.276 178.262 203.026 178.262 209.022C178.262 215.018 175.881 220.769 171.641 225.009C167.402 229.25 161.652 231.633 155.656 231.634C149.66 231.635 143.909 229.255 139.667 225.016C135.426 220.778 133.042 215.028 133.039 209.032V209.012Z" fill="#A0616A"/>
    <path d="M220.056 338.992L196.678 330.881C195.783 322.732 194.453 312.709 193.149 303.416L200.279 265.536L200.898 248.047C196.898 241.047 170.511 231.634 170.511 231.634C170.511 231.634 171.036 233.479 171.77 236.412C171.559 236.416 171.356 236.486 171.186 236.611C171.186 236.611 174.287 254.801 157.901 250.28C153.249 249.133 149.054 246.605 145.867 243.028C142.757 237.723 141.067 233.045 141.828 229.633C141.828 229.633 110.158 254.396 107.898 260.047C105.638 265.697 113.898 314.047 113.898 314.047C113.898 314.047 104.787 363.854 116.088 376.85C116.088 376.85 112.133 370.069 133.039 370.069C153.946 370.069 164.117 366.114 164.682 365.549C165.247 364.984 175.982 365.549 175.982 365.549C175.982 365.549 176.183 361.439 176.345 354.917C187.226 352.241 196.329 349.155 197.454 347.468C197.693 346.85 197.796 346.189 197.757 345.528L220.056 338.992Z" fill="white"/>
    <path d="M186.85 346.491L188.978 361.594C188.978 361.594 206.495 387.586 215.535 381.935C224.576 376.285 201.974 355.378 201.974 355.378V348.598L186.85 346.491Z" fill="#A0616A"/>
    <path d="M168.072 407.927C168.072 407.927 148.295 421.488 147.73 424.878C147.165 428.269 188.978 468.952 198.584 465.562C208.19 462.171 186.718 429.399 186.718 429.399L192.934 420.358L168.072 407.927Z" fill="#2F2E41"/>
    <path d="M161.856 511.33C161.856 511.33 153.381 527.151 157.901 533.932C162.422 540.712 165.812 549.188 168.637 555.403C171.462 561.619 191.804 564.444 200.844 562.184C209.885 559.924 190.109 533.932 190.109 533.932L185.023 511.33H161.856Z" fill="#2F2E41"/>
    <path d="M205.365 260.451C204.8 246.89 195.194 242.935 195.194 242.935L188.978 312.435L189.641 312.481L188.978 313.565L185.023 352.553C189.543 346.903 203.67 352.553 203.67 352.553L205.365 313.565C205.365 313.565 205.93 274.012 205.365 260.451Z" fill="white"/>
    <path d="M177.678 367.244L185.023 372.895C185.023 372.895 195.759 388.716 214.405 379.11C233.052 369.504 191.239 355.943 191.239 355.943L180.503 352.553L177.678 367.244Z" fill="#A0616A"/>
    <path d="M104.222 264.406C98.5716 271.187 111.568 316.955 114.958 330.516C118.348 344.077 148.86 355.943 156.206 356.508C163.551 357.073 170.897 370.634 175.982 372.895C181.068 375.155 181.633 359.899 184.513 352.735C187.392 345.571 168.072 346.338 168.072 346.338L139.82 327.691C139.82 327.691 136.995 301.699 134.734 281.923C132.474 262.146 117.218 254.801 117.218 254.801C112.698 251.975 109.872 257.626 104.222 264.406Z" fill="white"/>
    <path d="M171.577 196.801C171.577 196.801 184.024 204.134 186.697 204.07C189.37 204.006 190.018 201.474 188.046 197.981C186.075 194.488 177.032 194.625 177.032 194.625L171.577 196.801Z" fill="#3F3D56"/>
    <path opacity="0.1" d="M171.577 196.801C171.577 196.801 184.024 204.134 186.697 204.07C189.37 204.006 190.018 201.474 188.046 197.981C186.075 194.488 177.032 194.625 177.032 194.625L171.577 196.801Z" fill="black"/>
    <path d="M144.728 195.79L158.591 189.952L170.792 190.29L183.348 195.576C178.422 193.569 166.467 200.227 158.014 208.61C149.561 216.993 143.688 211.547 143.688 211.547L137.503 206.189L144.728 195.79Z" fill="#6C63FF"/>
    <path d="M131.064 201.74C130.141 195.009 134.4 188.945 137.108 185.852C138.318 184.474 139.98 183.574 141.795 183.313V183.313C141.866 183.239 141.943 183.164 142.027 183.091C145.001 180.448 155.518 178.186 155.518 178.186C158.644 177.325 164.625 180.722 164.625 180.722L175.69 192.809C169.968 190.349 161.926 192.901 161.926 192.901C153.91 194.753 146.374 200.041 141.043 204.618C138.28 206.969 135.686 209.512 133.281 212.229C133.281 212.229 132.398 211.463 131.064 201.74Z" fill="#6C63FF"/>
    <path opacity="0.1" d="M138.24 206.711C161.584 187.041 174.654 191.341 175.198 191.533L174.824 192.599C174.696 192.555 161.748 188.381 138.969 207.575L138.24 206.711Z" fill="black"/>
    <path d="M143.493 184.715C145.114 183.779 145.923 182.144 145.298 181.063C144.674 179.982 142.854 179.864 141.232 180.8C139.611 181.737 138.802 183.372 139.426 184.453C140.051 185.534 141.871 185.651 143.493 184.715Z" fill="#6C63FF"/>
    <path d="M138.389 209.56C138.615 208.016 138.047 206.654 137.12 206.519C136.194 206.384 135.26 207.526 135.035 209.07C134.809 210.614 135.377 211.975 136.304 212.11C137.23 212.246 138.164 211.104 138.389 209.56Z" fill="#A0616A"/>
    <path opacity="0.2" d="M138.898 296.047L140.609 328.212L167.898 345.047L143.898 327.047L138.898 296.047Z" fill="black"/>
    <path opacity="0.2" d="M184.898 301.047L182.898 345.047L181.898 301.047H184.898Z" fill="black"/>
    </g>
    <defs>
    <clipPath id="clip0">
    <rect width="845.602" height="760.283" fill="white"/>
    </clipPath>
    </defs>
</svg>