<svg width="1106" height="776" viewBox="0 0 1106 776" fill="none" xmlns="http://www.w3.org/2000/svg">
    <path d="M416 776C645.75 776 832 761.449 832 743.5C832 725.551 645.75 711 416 711C186.25 711 0 725.551 0 743.5C0 761.449 186.25 776 416 776Z" fill="#3F3D56"/>
    <path d="M156.146 720.521C155.917 720.146 150.506 711.111 148.63 692.35C146.909 675.137 148.016 646.123 163.062 605.651C191.568 528.98 156.493 467.118 156.135 466.502L157.865 465.498C157.956 465.654 167.007 481.427 172.354 506.542C179.418 539.84 176.846 574.461 164.938 606.349C136.481 682.889 157.637 719.122 157.854 719.479L156.146 720.521Z" fill="#3F3D56"/>
    <path d="M145 462C152.18 462 158 456.18 158 449C158 441.82 152.18 436 145 436C137.82 436 132 441.82 132 449C132 456.18 137.82 462 145 462Z" fill="#6C63FF"/>
    <path d="M186 510C193.18 510 199 504.18 199 497C199 489.82 193.18 484 186 484C178.82 484 173 489.82 173 497C173 504.18 178.82 510 186 510Z" fill="#3F3D56"/>
    <path d="M158 542C165.18 542 171 536.18 171 529C171 521.82 165.18 516 158 516C150.82 516 145 521.82 145 529C145 536.18 150.82 542 158 542Z" fill="#6C63FF"/>
    <path d="M192 569C199.18 569 205 563.18 205 556C205 548.82 199.18 543 192 543C184.82 543 179 548.82 179 556C179 563.18 184.82 569 192 569Z" fill="#6C63FF"/>
    <path d="M148 611C155.18 611 161 605.18 161 598C161 590.82 155.18 585 148 585C140.82 585 135 590.82 135 598C135 605.18 140.82 611 148 611Z" fill="#3F3D56"/>
    <path d="M164 721C164 721 151 689 190 665L164 721Z" fill="#3F3D56"/>
    <path d="M148.012 720.42C148.012 720.42 142.096 686.39 96.3035 686.682L148.012 720.42Z" fill="#3F3D56"/>
    <path d="M370 155C370 155 371 181 365 187C359 193 395 214 395 214L416 181C416 181 408 167 410 155H370Z" fill="#A0616A"/>
    <path d="M305.5 683.5V708.5L336.5 710.5L334.5 683.5H305.5Z" fill="#A0616A"/>
    <path d="M475.5 683.5V708.5L444.5 710.5L446.5 683.5H475.5Z" fill="#A0616A"/>
    <path d="M321.5 406.5C321.5 406.5 305.5 464.5 315.5 510.5C315.5 510.5 315.5 530.5 319.5 534.5C323.5 538.5 324.5 538.5 321.5 540.5C318.5 542.5 312.5 547.5 315.5 550.5C318.5 553.5 319.5 557.5 317.5 558.5C315.5 559.5 313.5 561.5 315.5 565.5C317.5 569.5 305.5 676.5 305.5 676.5C305.5 676.5 293.5 689.5 305.5 690.5C317.5 691.5 337.5 696.5 339.5 688.5C341.5 680.5 357.5 567.5 357.5 567.5C357.5 567.5 359.5 564.5 363.5 559.5C367.5 554.5 365.5 552.5 365.5 551.5C365.5 550.5 386.5 455.5 386.5 455.5C386.5 455.5 417.5 563.5 420.5 565.5C423.5 567.5 424.5 567.5 424.5 570.5C424.5 573.5 422.5 575.5 424.5 578.5C425.593 580.109 426.594 581.779 427.5 583.5C427.5 583.5 432.5 695.5 442.5 695.5C452.5 695.5 482.5 693.5 479.5 684.5C476.5 675.5 472.5 677.5 472.5 677.5C472.5 677.5 479.5 585.5 462.5 558.5V536.5C462.5 534.5 463.5 533.5 462.5 531.5C461.5 529.5 465.5 410.5 446.5 403.5C427.5 396.5 321.5 406.5 321.5 406.5Z" fill="#D0CDE1"/>
    <path d="M324.5 701.5C324.5 701.5 319.5 693.5 312.5 693.5C305.5 693.5 300.5 701.5 300.5 701.5L282.5 726.5C282.5 726.5 256.5 742.5 266.5 751.5C276.5 760.5 303.5 755.5 303.5 755.5C303.5 755.5 325.5 739.5 328.5 738.5C331.5 737.5 339.5 732.5 340.5 731.5C341.5 730.5 338.5 694.5 335.5 697C332.5 699.5 330.5 707.5 324.5 701.5Z" fill="#2F2E41"/>
    <path d="M456.5 701.5C456.5 701.5 461.5 693.5 468.5 693.5C475.5 693.5 480.5 701.5 480.5 701.5L498.5 726.5C498.5 726.5 524.5 742.5 514.5 751.5C504.5 760.5 477.5 755.5 477.5 755.5C477.5 755.5 455.5 739.5 452.5 738.5C449.5 737.5 441.5 732.5 440.5 731.5C439.5 730.5 442.5 694.5 445.5 697C448.5 699.5 450.5 707.5 456.5 701.5Z" fill="#2F2E41"/>
    <path d="M387.5 169.5C407.382 169.5 423.5 153.382 423.5 133.5C423.5 113.618 407.382 97.5 387.5 97.5C367.618 97.5 351.5 113.618 351.5 133.5C351.5 153.382 367.618 169.5 387.5 169.5Z" fill="#A0616A"/>
    <path d="M378 190C378 190 371.272 190.371 368.136 180.185L315 219L337 278C337 278 340 310 337 319C334 328 332 335 332 339C332 343 311 410 319 413C327 416 449 428 452 408C455 388 442 256 442 256L463 205L411.945 171.603C411.945 171.603 407 192 378 190Z" fill="#3F3D56"/>
    <path d="M311.5 282.5L307.5 313.5C307.5 313.5 291.5 346.5 295.5 390.5L294.5 419.5C294.5 419.5 284.5 469.5 304.5 471.5C324.5 473.5 311.5 416.5 311.5 416.5L322.5 389.5L333.76 329.438L339.5 287.5L311.5 282.5Z" fill="#A0616A"/>
    <path d="M329.5 217.5L315 219C315 219 305.5 289.5 308.5 289.5C311.5 289.5 345.5 297.5 346.5 295.5C347.5 293.5 329.5 217.5 329.5 217.5Z" fill="#3F3D56"/>
    <path d="M359.724 96.5975L353.234 94.2377C353.234 94.2377 366.803 80.6686 385.682 81.8486L380.372 76.5388C380.372 76.5388 393.351 71.8192 405.151 84.2083C411.353 90.721 418.53 98.3763 423.004 107H429.953L427.053 112.801L437.205 118.603L426.785 117.56C427.772 122.569 427.432 127.749 425.799 132.585L423.439 139.075C423.439 139.075 414 120.196 414 117.836V123.736C414 123.736 407.51 118.426 407.51 114.886L403.971 119.016L402.201 112.526L380.372 119.016L383.912 113.706L370.343 115.476L375.653 108.987C375.653 108.987 360.314 116.656 359.724 123.146C359.134 129.635 351.464 137.895 351.464 137.895L347.925 131.995C347.925 131.995 342.615 105.447 359.724 96.5975Z" fill="#2F2E41"/>
    <path d="M454.25 609.5C491.115 609.5 521 566.967 521 514.5C521 462.033 491.115 419.5 454.25 419.5C417.385 419.5 387.5 462.033 387.5 514.5C387.5 566.967 417.385 609.5 454.25 609.5Z" fill="#3F3D56"/>
    <path opacity="0.1" d="M454.25 609.5C491.115 609.5 521 566.967 521 514.5C521 462.033 491.115 419.5 454.25 419.5C417.385 419.5 387.5 462.033 387.5 514.5C387.5 566.967 417.385 609.5 454.25 609.5Z" fill="black"/>
    <path d="M463.25 609.5C500.115 609.5 530 566.967 530 514.5C530 462.033 500.115 419.5 463.25 419.5C426.385 419.5 396.5 462.033 396.5 514.5C396.5 566.967 426.385 609.5 463.25 609.5Z" fill="#3F3D56"/>
    <path opacity="0.1" d="M463.25 595.979C494.868 595.979 520.5 559.5 520.5 514.5C520.5 469.5 494.868 433.021 463.25 433.021C431.632 433.021 406 469.5 406 514.5C406 559.5 431.632 595.979 463.25 595.979Z" fill="black"/>
    <path d="M462.754 553.748V544.183C457.919 544.089 452.917 542.384 450 540.016L452 533.672C455.467 536.27 459.672 537.696 464.004 537.743C469.923 537.743 473.924 533.861 473.924 528.463C473.924 523.255 470.673 520.035 464.505 517.194C456.002 513.406 450.75 509.05 450.75 500.811C450.75 492.951 455.668 486.985 463.338 485.565V476H468.506V485.186C472.36 485.239 476.119 486.388 479.343 488.5L477.259 494.75C474.166 492.634 470.502 491.511 466.755 491.531C460.337 491.531 457.919 495.887 457.919 499.675C457.919 504.599 461.003 507.061 468.256 510.471C476.842 514.448 481.177 519.372 481.177 527.8C481.177 535.281 476.592 542.289 468.006 543.898V553.748H462.754Z" fill="#6C63FF"/>
    <path d="M477.5 271.5V312.5C477.5 312.5 478.5 362.5 461.5 393.5L452.5 413.5C452.5 413.5 434.5 471.5 423.5 453.5C412.5 435.5 435.5 405.5 435.5 405.5L448.516 329.38L440.5 278.5L477.5 271.5Z" fill="#A0616A"/>
    <path d="M443.5 202.5L463 205C463 205 486.5 276.5 480.5 279.5C474.5 282.5 435.5 284.5 435.5 284.5L443.5 202.5Z" fill="#3F3D56"/>
    <path d="M1049 50.259H591V563H1049V50.259Z" fill="#F2F2F2"/>
    <path d="M675 436.814H663V434.814H675V436.814ZM651 436.814H639V434.814H651V436.814ZM627 436.814H615V434.814H627V436.814ZM603 436.814H591V434.814H603V436.814Z" fill="#E6E6E6"/>
    <path d="M843 342H831V340H843V342ZM819 342H807V340H819V342ZM795 342H783V340H795V342ZM771 342H759V340H771V342ZM747 342H735V340H747V342ZM723 342H711V340H723V342ZM699 342H687V340H699V342ZM675 342H663V340H675V342ZM651 342H639V340H651V342ZM627 342H615V340H627V342ZM603 342H591V340H603V342Z" fill="#E6E6E6"/>
    <path d="M1083 283H1071V281H1083V283ZM1059 283H1047V281H1059V283ZM1035 283H1023V281H1035V283ZM1011 283H999V281H1011V283ZM987 283H975V281H987V283ZM963 283H951V281H963V283ZM939 283H927V281H939V283ZM915 283H903V281H915V283ZM891 283H879V281H891V283ZM867 283H855V281H867V283ZM843 283H831V281H843V283ZM819 283H807V281H819V283ZM795 283H783V281H795V283ZM771 283H759V281H771V283ZM747 283H735V281H747V283ZM723 283H711V281H723V283ZM699 283H687V281H699V283ZM675 283H663V281H675V283ZM651 283H639V281H651V283ZM627 283H615V281H627V283ZM603 283H591V281H603V283Z" fill="#E6E6E6"/>
    <path d="M682 0.775879H680V6.77588H682V0.775879Z" fill="#E6E6E6"/>
    <path d="M682 455.199H680V443.398H682V455.199ZM682 431.598H680V419.797H682V431.598ZM682 407.996H680V396.196H682V407.996ZM682 384.396H680V372.595H682V384.396ZM682 360.794H680V348.993H682V360.794ZM682 337.192H680V325.393H682V337.192ZM682 313.592H680V301.791H682V313.592ZM682 289.99H680V278.189H682V289.99ZM682 266.389H680V254.589H682V266.389ZM682 242.788H680V230.987H682V242.788ZM682 219.187H680V207.386H682V219.187ZM682 195.585H680V183.785H682V195.585ZM682 171.984H680V160.184H682V171.984ZM682 148.383H680V136.583H682V148.383ZM682 124.782H680V112.981H682V124.782ZM682 101.181H680V89.3799H682V101.181ZM682 77.5791H680V65.7788H682V77.5791ZM682 53.978H680V42.1772H682V53.978ZM682 30.377H680V18.5762H682V30.377Z" fill="#E6E6E6"/>
    <path d="M682 467H680V473H682V467Z" fill="#E6E6E6"/>
    <path d="M856 0.775879H854V6.77588H856V0.775879Z" fill="#E6E6E6"/>
    <path d="M856 364.09H854V352.179H856V364.09ZM856 340.269H854V328.358H856V340.269ZM856 316.447H854V304.537H856V316.447ZM856 292.627H854V280.716H856V292.627ZM856 268.806H854V256.896H856V268.806ZM856 244.985H854V233.074H856V244.985ZM856 221.164H854V209.253H856V221.164ZM856 197.343H854V185.433H856V197.343ZM856 173.522H854V161.611H856V173.522ZM856 149.701H854V137.791H856V149.701ZM856 125.88H854V113.97H856V125.88ZM856 102.059H854V90.149H856V102.059ZM856 78.2383H854V66.3277H856V78.2383ZM856 54.4175H854V42.5069H856V54.4175ZM856 30.5967H854V18.686H856V30.5967Z" fill="#E6E6E6"/>
    <path d="M856 376H854V382H856V376Z" fill="#E6E6E6"/>
    <path d="M591 563L682 472L723.5 513.5L855 382L940 467L1093 314V563H591Z" fill="#6C63FF"/>
    <path d="M1094 564H590V0H1094V564ZM592 562H1092V2H592V562Z" fill="#3F3D56"/>
    <path d="M681 447C688.18 447 694 441.18 694 434C694 426.82 688.18 421 681 421C673.82 421 668 426.82 668 434C668 441.18 673.82 447 681 447Z" fill="#3F3D56"/>
    <path d="M855 354C862.18 354 868 348.18 868 341C868 333.82 862.18 328 855 328C847.82 328 842 333.82 842 341C842 348.18 847.82 354 855 354Z" fill="#3F3D56"/>
    <path d="M1093 295C1100.18 295 1106 289.18 1106 282C1106 274.82 1100.18 269 1093 269C1085.82 269 1080 274.82 1080 282C1080 289.18 1085.82 295 1093 295Z" fill="#3F3D56"/>
    <path d="M1002 80C996.183 81.6876 988.379 82.9913 982.602 82.5298L990.141 87.5371L635.405 350.196L636.595 351.804L991.331 89.1442L993.922 97.8168C995.166 92.1566 998.69 85.0734 1002 80Z" fill="#3F3D56"/>
</svg>